<svg width="26.4" height="40" viewBox="0 0 35 53" fill="none" xmlns="http://www.w3.org/2000/svg">
<path d="M34.3069 21.4623C15.5556 63.5126 20.4167 63.5126 0.830152 21.4623C0.830152 21.4623 -1.03769 16.2365 0.830152 11.4466C2.22503 7.86952 6.40961 0 17.5685 0C28.7274 0 32.912 7.86952 34.3069 11.4466C35.8664 16.2398 34.3069 21.4623 34.3069 21.4623Z" fill="#D27B5F"/>
<path d="M28 18C28 23.5228 23.5228 28 18 28C12.4772 28 8 23.5228 8 18C8 12.4772 12.4772 8 18 8C23.5228 8 28 12.4772 28 18Z" fill="white"/>
<path d="M23.0314 22.6968C23.5816 22.6487 23.9886 22.1636 23.9404 21.6135L23.156 12.6477C23.1079 12.0975 22.6229 11.6905 22.0727 11.7387C21.5225 11.7868 21.1155 12.2718 21.1636 12.822L21.8609 20.7916L13.8913 21.4888C13.3412 21.537 12.9342 22.022 12.9823 22.5722C13.0304 23.1224 13.5155 23.5293 14.0656 23.4812L23.0314 22.6968ZM15.3293 16.6163L22.3015 22.4667L23.587 20.9346L16.6149 15.0843L15.3293 16.6163ZM8.35721 10.766L11.8433 13.6912L13.1288 12.1591L9.64279 9.23396L8.35721 10.766ZM11.8433 13.6912L15.3293 16.6163L16.6149 15.0843L13.1288 12.1591L11.8433 13.6912Z" fill="#D27B5F"/>
</svg>
