<svg width="35" height="53" viewBox="0 0 35 53" fill="none" xmlns="http://www.w3.org/2000/svg">
<path d="M34.3069 21.4623C15.5556 63.5126 20.4167 63.5126 0.830152 21.4623C0.830152 21.4623 -1.03769 16.2365 0.830152 11.4466C2.22503 7.86952 6.40961 0 17.5685 0C28.7274 0 32.912 7.86952 34.3069 11.4466C35.8664 16.2398 34.3069 21.4623 34.3069 21.4623Z" fill="#4EB300"/>
<path d="M28 18C28 23.5228 23.5228 28 18 28C12.4772 28 8 23.5228 8 18C8 12.4772 12.4772 8 18 8C23.5228 8 28 12.4772 28 18Z" fill="white"/>
<path d="M23.9999 14.01C24.0055 13.4578 23.5623 13.0056 23.01 13L14.0105 12.9097C13.4582 12.9041 13.006 13.3473 13.0005 13.8996C12.995 14.4518 13.4382 14.904 13.9904 14.9096L21.99 14.9899L21.9097 22.9895C21.9041 23.5418 22.3473 23.9939 22.8996 23.9995C23.4518 24.005 23.904 23.5618 23.9096 23.0096L23.9999 14.01ZM17.2 21.0849L23.7 14.7142L22.3 13.2858L15.8 19.6566L17.2 21.0849ZM10.7 27.4557L13.95 24.2703L12.55 22.842L9.30003 26.0273L10.7 27.4557ZM13.95 24.2703L17.2 21.0849L15.8 19.6566L12.55 22.842L13.95 24.2703Z" fill="#4EB300"/>
</svg>
