<svg width="42" height="56" viewBox="0 0 42 56" fill="none" xmlns="http://www.w3.org/2000/svg">
<circle cx="21" cy="21" r="21" fill="#53CC05"/>
<path d="M20 56L3 32H39L20 56Z" fill="#53CC05"/>
<path d="M28.1873 9.62261H25.0246V9H23.414V9.62261H19.5276V9H17.9171V9.62261H14.7893C13.2604 9.62261 12 10.8796 12 12.442V30.5798C12 32.1422 13.2604 33.4109 14.8127 33.4109H15.1161L13.0037 36.3008H14.2408L16.3532 33.4109H26.4834L28.5958 36.3008H29.8329L27.7205 33.4109H28.1873C29.7396 33.4109 31 32.1422 31 30.5798V12.442C31 10.8796 29.7396 9.61086 28.1873 9.61086V9.62261ZM19.0842 10.6446H23.9625V11.3377H19.0842V10.6446ZM16.3532 30.991C15.6063 30.991 14.9994 30.3801 14.9994 29.6283C14.9994 28.8765 15.6063 28.2656 16.3532 28.2656C17.1001 28.2656 17.707 28.8765 17.707 29.6283C17.707 30.3801 17.1001 30.991 16.3532 30.991ZM26.7985 30.991C26.0516 30.991 25.4447 30.3801 25.4447 29.6283C25.4447 28.8765 26.0516 28.2656 26.7985 28.2656C27.5455 28.2656 28.1523 28.8765 28.1523 29.6283C28.1523 30.3801 27.5455 30.991 26.7985 30.991ZM28.5958 20.6651C28.5958 21.6401 27.8022 22.4389 26.8335 22.4389H16.1548C15.1861 22.4389 14.3925 21.6401 14.3925 20.6651V15.9544C14.3925 14.9794 15.1861 14.1806 16.1548 14.1806H26.8452C27.8139 14.1806 28.6075 14.9794 28.6075 15.9544V20.6651H28.5958Z" fill="white"/>
</svg>
