<svg width="382" height="53" viewBox="0 0 382 53" fill="none" xmlns="http://www.w3.org/2000/svg">
<rect x="2.5" y="2.5" width="377" height="48" rx="24" fill="white"/>
<rect x="2.5" y="2.5" width="377" height="48" rx="24" stroke="#FFC700" stroke-width="5"/>
<path d="M42.376 33V20.4H44.194L52.906 30.714L52.69 30.876C52.63 30.552 52.582 30.204 52.546 29.832C52.51 29.448 52.474 29.052 52.438 28.644C52.414 28.224 52.39 27.792 52.366 27.348C52.354 26.892 52.342 26.43 52.33 25.962C52.33 25.494 52.33 25.02 52.33 24.54V20.4H54.274V33H52.42L43.834 23.064L43.96 22.812C43.996 23.34 44.032 23.82 44.068 24.252C44.104 24.672 44.14 25.056 44.176 25.404C44.212 25.752 44.236 26.07 44.248 26.358C44.272 26.634 44.29 26.892 44.302 27.132C44.314 27.36 44.32 27.57 44.32 27.762V33H42.376ZM62.6949 33.18C61.7709 33.18 60.9489 32.97 60.2289 32.55C59.5089 32.118 58.9389 31.53 58.5189 30.786C58.1109 30.042 57.9069 29.196 57.9069 28.248C57.9069 27.3 58.1169 26.46 58.5369 25.728C58.9689 24.984 59.5569 24.402 60.3009 23.982C61.0449 23.562 61.8909 23.352 62.8389 23.352C63.4149 23.352 63.9429 23.43 64.4229 23.586C64.9149 23.73 65.3409 23.934 65.7009 24.198C66.0609 24.462 66.3489 24.756 66.5649 25.08C66.7809 25.392 66.9009 25.722 66.9249 26.07L66.4749 25.998V23.55H68.3289V33H66.4749V30.606L66.8709 30.588C66.8229 30.888 66.6789 31.194 66.4389 31.506C66.2109 31.806 65.8989 32.082 65.5029 32.334C65.1189 32.586 64.6869 32.79 64.2069 32.946C63.7269 33.102 63.2229 33.18 62.6949 33.18ZM63.1629 31.47C63.8229 31.47 64.4049 31.332 64.9089 31.056C65.4249 30.78 65.8269 30.402 66.1149 29.922C66.4029 29.43 66.5469 28.872 66.5469 28.248C66.5469 27.648 66.4029 27.108 66.1149 26.628C65.8269 26.148 65.4249 25.77 64.9089 25.494C64.4049 25.206 63.8229 25.062 63.1629 25.062C62.5029 25.062 61.9209 25.206 61.4169 25.494C60.9129 25.77 60.5169 26.148 60.2289 26.628C59.9409 27.108 59.7969 27.648 59.7969 28.248C59.7969 28.872 59.9409 29.43 60.2289 29.922C60.5169 30.402 60.9129 30.78 61.4169 31.056C61.9209 31.332 62.5029 31.47 63.1629 31.47ZM75.7398 33L71.1858 23.55H73.2558L76.7118 31.002L76.2978 31.164L79.9518 23.55H81.9318L77.2158 33H75.7398ZM85.3232 33V23.55H87.1772V33H85.3232ZM86.2232 21.39C85.8272 21.39 85.5212 21.288 85.3052 21.084C85.0892 20.88 84.9812 20.592 84.9812 20.22C84.9812 19.872 85.0892 19.59 85.3052 19.374C85.5332 19.158 85.8392 19.05 86.2232 19.05C86.6192 19.05 86.9252 19.152 87.1412 19.356C87.3572 19.56 87.4652 19.848 87.4652 20.22C87.4652 20.568 87.3512 20.85 87.1232 21.066C86.9072 21.282 86.6072 21.39 86.2232 21.39ZM96.5702 37.14C95.7302 37.14 94.9562 37.032 94.2482 36.816C93.5402 36.6 92.9702 36.33 92.5382 36.006L93.2042 34.53C93.4562 34.686 93.7562 34.836 94.1042 34.98C94.4522 35.124 94.8362 35.244 95.2562 35.34C95.6762 35.436 96.1142 35.484 96.5702 35.484C97.2422 35.484 97.8182 35.364 98.2982 35.124C98.7782 34.884 99.1502 34.53 99.4142 34.062C99.6782 33.594 99.8102 33.024 99.8102 32.352V30.822L100.008 30.948C99.9362 31.308 99.7022 31.662 99.3062 32.01C98.9222 32.346 98.4362 32.628 97.8482 32.856C97.2722 33.072 96.6662 33.18 96.0302 33.18C95.0582 33.18 94.1942 32.97 93.4382 32.55C92.6942 32.118 92.1062 31.536 91.6742 30.804C91.2422 30.06 91.0262 29.214 91.0262 28.266C91.0262 27.318 91.2422 26.478 91.6742 25.746C92.1182 25.002 92.7242 24.42 93.4922 24C94.2602 23.568 95.1362 23.352 96.1202 23.352C96.4442 23.352 96.7862 23.394 97.1462 23.478C97.5182 23.562 97.8782 23.682 98.2262 23.838C98.5742 23.982 98.8922 24.15 99.1802 24.342C99.4682 24.534 99.7022 24.744 99.8822 24.972C100.074 25.188 100.182 25.404 100.206 25.62L99.8102 25.764V23.55H101.664V32.136C101.664 32.964 101.532 33.684 101.268 34.296C101.016 34.92 100.662 35.442 100.206 35.862C99.7502 36.282 99.2102 36.6 98.5862 36.816C97.9622 37.032 97.2902 37.14 96.5702 37.14ZM96.4442 31.47C97.1162 31.47 97.7102 31.332 98.2262 31.056C98.7542 30.78 99.1622 30.402 99.4502 29.922C99.7382 29.442 99.8822 28.89 99.8822 28.266C99.8822 27.642 99.7322 27.09 99.4322 26.61C99.1442 26.118 98.7422 25.734 98.2262 25.458C97.7102 25.182 97.1162 25.044 96.4442 25.044C95.7602 25.044 95.1542 25.188 94.6262 25.476C94.0982 25.752 93.6782 26.136 93.3662 26.628C93.0662 27.108 92.9162 27.654 92.9162 28.266C92.9162 28.878 93.0662 29.43 93.3662 29.922C93.6782 30.402 94.0982 30.78 94.6262 31.056C95.1542 31.332 95.7602 31.47 96.4442 31.47ZM109.945 33.18C109.021 33.18 108.199 32.97 107.479 32.55C106.759 32.118 106.189 31.53 105.769 30.786C105.361 30.042 105.157 29.196 105.157 28.248C105.157 27.3 105.367 26.46 105.787 25.728C106.219 24.984 106.807 24.402 107.551 23.982C108.295 23.562 109.141 23.352 110.089 23.352C110.665 23.352 111.193 23.43 111.673 23.586C112.165 23.73 112.591 23.934 112.951 24.198C113.311 24.462 113.599 24.756 113.815 25.08C114.031 25.392 114.151 25.722 114.175 26.07L113.725 25.998V23.55H115.579V33H113.725V30.606L114.121 30.588C114.073 30.888 113.929 31.194 113.689 31.506C113.461 31.806 113.149 32.082 112.753 32.334C112.369 32.586 111.937 32.79 111.457 32.946C110.977 33.102 110.473 33.18 109.945 33.18ZM110.413 31.47C111.073 31.47 111.655 31.332 112.159 31.056C112.675 30.78 113.077 30.402 113.365 29.922C113.653 29.43 113.797 28.872 113.797 28.248C113.797 27.648 113.653 27.108 113.365 26.628C113.077 26.148 112.675 25.77 112.159 25.494C111.655 25.206 111.073 25.062 110.413 25.062C109.753 25.062 109.171 25.206 108.667 25.494C108.163 25.77 107.767 26.148 107.479 26.628C107.191 27.108 107.047 27.648 107.047 28.248C107.047 28.872 107.191 29.43 107.479 29.922C107.767 30.402 108.163 30.78 108.667 31.056C109.171 31.332 109.753 31.47 110.413 31.47ZM121.401 33V20.922H123.255V33H121.401ZM119.007 25.35V23.55H126.027V25.35H119.007ZM134.116 33.18C133.036 33.18 132.076 32.976 131.236 32.568C130.396 32.148 129.736 31.578 129.256 30.858C128.788 30.138 128.554 29.31 128.554 28.374C128.554 27.606 128.692 26.916 128.968 26.304C129.244 25.692 129.622 25.164 130.102 24.72C130.594 24.276 131.17 23.934 131.83 23.694C132.49 23.454 133.198 23.334 133.954 23.334C134.638 23.334 135.274 23.448 135.862 23.676C136.462 23.904 136.984 24.222 137.428 24.63C137.872 25.038 138.214 25.524 138.454 26.088C138.706 26.64 138.826 27.252 138.814 27.924L138.796 28.788H130.066L129.652 27.312H137.194L136.924 27.546V27.114C136.876 26.718 136.708 26.364 136.42 26.052C136.132 25.74 135.772 25.494 135.34 25.314C134.908 25.134 134.446 25.044 133.954 25.044C133.234 25.044 132.604 25.158 132.064 25.386C131.536 25.614 131.122 25.968 130.822 26.448C130.534 26.916 130.39 27.516 130.39 28.248C130.39 28.908 130.558 29.478 130.894 29.958C131.23 30.438 131.698 30.81 132.298 31.074C132.898 31.338 133.588 31.47 134.368 31.47C135.04 31.47 135.622 31.374 136.114 31.182C136.606 30.99 137.074 30.726 137.518 30.39L138.4 31.74C138.088 32.004 137.698 32.25 137.23 32.478C136.762 32.694 136.258 32.868 135.718 33C135.19 33.12 134.656 33.18 134.116 33.18ZM154.995 33.18C154.011 33.18 153.111 33.018 152.295 32.694C151.479 32.37 150.765 31.914 150.153 31.326C149.541 30.738 149.067 30.054 148.731 29.274C148.407 28.482 148.245 27.624 148.245 26.7C148.245 25.776 148.407 24.924 148.731 24.144C149.067 23.352 149.541 22.662 150.153 22.074C150.765 21.486 151.479 21.03 152.295 20.706C153.111 20.382 154.011 20.22 154.995 20.22C155.967 20.22 156.861 20.382 157.677 20.706C158.505 21.03 159.219 21.492 159.819 22.092C160.431 22.68 160.905 23.37 161.241 24.162C161.577 24.942 161.745 25.788 161.745 26.7C161.745 27.612 161.577 28.464 161.241 29.256C160.905 30.036 160.431 30.726 159.819 31.326C159.219 31.914 158.505 32.37 157.677 32.694C156.861 33.018 155.967 33.18 154.995 33.18ZM154.995 31.29C155.691 31.29 156.327 31.176 156.903 30.948C157.491 30.72 157.995 30.402 158.415 29.994C158.847 29.574 159.177 29.088 159.405 28.536C159.645 27.972 159.765 27.36 159.765 26.7C159.765 26.04 159.645 25.434 159.405 24.882C159.177 24.318 158.847 23.832 158.415 23.424C157.995 23.004 157.491 22.68 156.903 22.452C156.327 22.224 155.691 22.11 154.995 22.11C154.299 22.11 153.657 22.224 153.069 22.452C152.493 22.68 151.989 23.004 151.557 23.424C151.125 23.832 150.795 24.318 150.567 24.882C150.339 25.434 150.225 26.04 150.225 26.7C150.225 27.36 150.339 27.972 150.567 28.536C150.795 29.088 151.125 29.574 151.557 29.994C151.989 30.402 152.493 30.72 153.069 30.948C153.657 31.176 154.299 31.29 154.995 31.29ZM165.546 36.96V23.55H167.418V25.71L167.13 25.548C167.214 25.2 167.442 24.864 167.813 24.54C168.198 24.204 168.666 23.928 169.218 23.712C169.782 23.496 170.37 23.388 170.982 23.388C171.954 23.388 172.806 23.598 173.538 24.018C174.27 24.438 174.846 25.014 175.266 25.746C175.686 26.478 175.896 27.318 175.896 28.266C175.896 29.202 175.686 30.042 175.266 30.786C174.858 31.518 174.282 32.1 173.538 32.532C172.806 32.952 171.972 33.162 171.036 33.162C170.376 33.162 169.752 33.048 169.164 32.82C168.576 32.58 168.084 32.286 167.688 31.938C167.292 31.59 167.046 31.242 166.95 30.894L167.418 30.642V36.96H165.546ZM170.73 31.452C171.39 31.452 171.972 31.314 172.476 31.038C172.98 30.762 173.376 30.384 173.664 29.904C173.964 29.424 174.114 28.878 174.114 28.266C174.114 27.654 173.97 27.114 173.682 26.646C173.394 26.166 172.998 25.788 172.494 25.512C171.99 25.236 171.402 25.098 170.73 25.098C170.07 25.098 169.482 25.236 168.966 25.512C168.462 25.776 168.06 26.148 167.76 26.628C167.472 27.108 167.328 27.654 167.328 28.266C167.328 28.878 167.472 29.424 167.76 29.904C168.06 30.384 168.462 30.762 168.966 31.038C169.482 31.314 170.07 31.452 170.73 31.452ZM184.126 33.18C183.046 33.18 182.086 32.976 181.246 32.568C180.406 32.148 179.746 31.578 179.266 30.858C178.798 30.138 178.564 29.31 178.564 28.374C178.564 27.606 178.702 26.916 178.978 26.304C179.254 25.692 179.632 25.164 180.112 24.72C180.604 24.276 181.18 23.934 181.84 23.694C182.5 23.454 183.208 23.334 183.964 23.334C184.648 23.334 185.284 23.448 185.872 23.676C186.472 23.904 186.994 24.222 187.438 24.63C187.882 25.038 188.224 25.524 188.464 26.088C188.716 26.64 188.836 27.252 188.824 27.924L188.806 28.788H180.076L179.662 27.312H187.204L186.934 27.546V27.114C186.886 26.718 186.718 26.364 186.43 26.052C186.142 25.74 185.782 25.494 185.35 25.314C184.918 25.134 184.456 25.044 183.964 25.044C183.244 25.044 182.614 25.158 182.074 25.386C181.546 25.614 181.132 25.968 180.832 26.448C180.544 26.916 180.4 27.516 180.4 28.248C180.4 28.908 180.568 29.478 180.904 29.958C181.24 30.438 181.708 30.81 182.308 31.074C182.908 31.338 183.598 31.47 184.378 31.47C185.05 31.47 185.632 31.374 186.124 31.182C186.616 30.99 187.084 30.726 187.528 30.39L188.41 31.74C188.098 32.004 187.708 32.25 187.24 32.478C186.772 32.694 186.268 32.868 185.728 33C185.2 33.12 184.666 33.18 184.126 33.18ZM192.651 33V23.55H194.523V26.7L194.199 26.232C194.355 25.704 194.619 25.224 194.991 24.792C195.363 24.348 195.789 24 196.269 23.748C196.749 23.484 197.247 23.352 197.763 23.352C198.063 23.352 198.351 23.382 198.627 23.442C198.915 23.502 199.137 23.58 199.293 23.676L198.807 25.656C198.615 25.548 198.387 25.464 198.123 25.404C197.871 25.344 197.625 25.314 197.385 25.314C196.977 25.314 196.599 25.392 196.251 25.548C195.903 25.692 195.597 25.89 195.333 26.142C195.081 26.394 194.883 26.682 194.739 27.006C194.595 27.318 194.523 27.648 194.523 27.996V33H192.651ZM205.921 33.18C204.997 33.18 204.175 32.97 203.455 32.55C202.735 32.118 202.165 31.53 201.745 30.786C201.337 30.042 201.133 29.196 201.133 28.248C201.133 27.3 201.343 26.46 201.763 25.728C202.195 24.984 202.783 24.402 203.527 23.982C204.271 23.562 205.117 23.352 206.065 23.352C206.641 23.352 207.169 23.43 207.649 23.586C208.141 23.73 208.567 23.934 208.927 24.198C209.287 24.462 209.575 24.756 209.791 25.08C210.007 25.392 210.127 25.722 210.151 26.07L209.701 25.998V23.55H211.555V33H209.701V30.606L210.097 30.588C210.049 30.888 209.905 31.194 209.665 31.506C209.437 31.806 209.125 32.082 208.729 32.334C208.345 32.586 207.913 32.79 207.433 32.946C206.953 33.102 206.449 33.18 205.921 33.18ZM206.389 31.47C207.049 31.47 207.631 31.332 208.135 31.056C208.651 30.78 209.053 30.402 209.341 29.922C209.629 29.43 209.773 28.872 209.773 28.248C209.773 27.648 209.629 27.108 209.341 26.628C209.053 26.148 208.651 25.77 208.135 25.494C207.631 25.206 207.049 25.062 206.389 25.062C205.729 25.062 205.147 25.206 204.643 25.494C204.139 25.77 203.743 26.148 203.455 26.628C203.167 27.108 203.023 27.648 203.023 28.248C203.023 28.872 203.167 29.43 203.455 29.922C203.743 30.402 204.139 30.78 204.643 31.056C205.147 31.332 205.729 31.47 206.389 31.47ZM217.377 33V20.922H219.231V33H217.377ZM214.983 25.35V23.55H222.003V25.35H214.983ZM225.86 33V23.55H227.714V33H225.86ZM226.76 21.39C226.364 21.39 226.058 21.288 225.842 21.084C225.626 20.88 225.518 20.592 225.518 20.22C225.518 19.872 225.626 19.59 225.842 19.374C226.07 19.158 226.376 19.05 226.76 19.05C227.156 19.05 227.462 19.152 227.678 19.356C227.894 19.56 228.002 19.848 228.002 20.22C228.002 20.568 227.888 20.85 227.66 21.066C227.444 21.282 227.144 21.39 226.76 21.39ZM236.963 33.18C235.919 33.18 234.989 32.97 234.173 32.55C233.369 32.118 232.733 31.536 232.265 30.804C231.797 30.06 231.563 29.214 231.563 28.266C231.563 27.318 231.797 26.478 232.265 25.746C232.733 25.002 233.369 24.42 234.173 24C234.989 23.568 235.919 23.352 236.963 23.352C237.995 23.352 238.913 23.568 239.717 24C240.533 24.42 241.175 25.002 241.643 25.746C242.111 26.478 242.345 27.318 242.345 28.266C242.345 29.214 242.111 30.06 241.643 30.804C241.175 31.536 240.533 32.118 239.717 32.55C238.913 32.97 237.995 33.18 236.963 33.18ZM236.963 31.488C237.623 31.488 238.217 31.35 238.745 31.074C239.285 30.786 239.705 30.402 240.005 29.922C240.317 29.43 240.467 28.878 240.455 28.266C240.467 27.642 240.317 27.09 240.005 26.61C239.705 26.118 239.285 25.734 238.745 25.458C238.217 25.182 237.623 25.044 236.963 25.044C236.303 25.044 235.703 25.188 235.163 25.476C234.623 25.752 234.197 26.13 233.885 26.61C233.585 27.09 233.441 27.642 233.453 28.266C233.441 28.878 233.585 29.43 233.885 29.922C234.197 30.402 234.623 30.786 235.163 31.074C235.703 31.35 236.303 31.488 236.963 31.488ZM246.071 33V23.55H247.925V25.782L247.457 25.926C247.637 25.494 247.919 25.086 248.303 24.702C248.687 24.306 249.143 23.982 249.671 23.73C250.211 23.478 250.781 23.352 251.381 23.352C252.209 23.352 252.899 23.514 253.451 23.838C254.015 24.15 254.435 24.6 254.711 25.188C254.987 25.776 255.125 26.484 255.125 27.312V33H253.271V27.51C253.271 26.97 253.169 26.52 252.965 26.16C252.773 25.788 252.491 25.512 252.119 25.332C251.759 25.14 251.333 25.05 250.841 25.062C250.421 25.062 250.031 25.134 249.671 25.278C249.323 25.422 249.017 25.614 248.753 25.854C248.489 26.094 248.285 26.364 248.141 26.664C247.997 26.952 247.925 27.252 247.925 27.564V33H247.007C246.791 33 246.605 33 246.449 33C246.293 33 246.167 33 246.071 33ZM263.507 33.18C262.583 33.18 261.761 32.97 261.041 32.55C260.321 32.118 259.751 31.53 259.331 30.786C258.923 30.042 258.719 29.196 258.719 28.248C258.719 27.3 258.929 26.46 259.349 25.728C259.781 24.984 260.369 24.402 261.113 23.982C261.857 23.562 262.703 23.352 263.651 23.352C264.227 23.352 264.755 23.43 265.235 23.586C265.727 23.73 266.153 23.934 266.513 24.198C266.873 24.462 267.161 24.756 267.377 25.08C267.593 25.392 267.713 25.722 267.737 26.07L267.287 25.998V23.55H269.141V33H267.287V30.606L267.683 30.588C267.635 30.888 267.491 31.194 267.251 31.506C267.023 31.806 266.711 32.082 266.315 32.334C265.931 32.586 265.499 32.79 265.019 32.946C264.539 33.102 264.035 33.18 263.507 33.18ZM263.975 31.47C264.635 31.47 265.217 31.332 265.721 31.056C266.237 30.78 266.639 30.402 266.927 29.922C267.215 29.43 267.359 28.872 267.359 28.248C267.359 27.648 267.215 27.108 266.927 26.628C266.639 26.148 266.237 25.77 265.721 25.494C265.217 25.206 264.635 25.062 263.975 25.062C263.315 25.062 262.733 25.206 262.229 25.494C261.725 25.77 261.329 26.148 261.041 26.628C260.753 27.108 260.609 27.648 260.609 28.248C260.609 28.872 260.753 29.43 261.041 29.922C261.329 30.402 261.725 30.78 262.229 31.056C262.733 31.332 263.315 31.47 263.975 31.47ZM273.667 33V19.68H275.521V33H273.667ZM286.747 33V20.4H288.691V31.128H295.603V33H286.747ZM299.847 33V23.55H301.701V33H299.847ZM300.747 21.39C300.351 21.39 300.045 21.288 299.829 21.084C299.613 20.88 299.505 20.592 299.505 20.22C299.505 19.872 299.613 19.59 299.829 19.374C300.057 19.158 300.363 19.05 300.747 19.05C301.143 19.05 301.449 19.152 301.665 19.356C301.881 19.56 301.989 19.848 301.989 20.22C301.989 20.568 301.875 20.85 301.647 21.066C301.431 21.282 301.131 21.39 300.747 21.39ZM306.54 33V23.55H308.394V25.782L307.926 25.926C308.106 25.494 308.388 25.086 308.772 24.702C309.156 24.306 309.612 23.982 310.14 23.73C310.68 23.478 311.25 23.352 311.85 23.352C312.678 23.352 313.368 23.514 313.92 23.838C314.484 24.15 314.904 24.6 315.18 25.188C315.456 25.776 315.594 26.484 315.594 27.312V33H313.74V27.51C313.74 26.97 313.638 26.52 313.434 26.16C313.242 25.788 312.96 25.512 312.588 25.332C312.228 25.14 311.802 25.05 311.31 25.062C310.89 25.062 310.5 25.134 310.14 25.278C309.792 25.422 309.486 25.614 309.222 25.854C308.958 26.094 308.754 26.364 308.61 26.664C308.466 26.952 308.394 27.252 308.394 27.564V33H307.476C307.26 33 307.074 33 306.918 33C306.762 33 306.636 33 306.54 33ZM324.768 33.18C323.688 33.18 322.728 32.976 321.888 32.568C321.048 32.148 320.388 31.578 319.908 30.858C319.44 30.138 319.206 29.31 319.206 28.374C319.206 27.606 319.344 26.916 319.62 26.304C319.896 25.692 320.274 25.164 320.754 24.72C321.246 24.276 321.822 23.934 322.482 23.694C323.142 23.454 323.85 23.334 324.606 23.334C325.29 23.334 325.926 23.448 326.514 23.676C327.114 23.904 327.636 24.222 328.08 24.63C328.524 25.038 328.866 25.524 329.106 26.088C329.358 26.64 329.478 27.252 329.466 27.924L329.448 28.788H320.718L320.304 27.312H327.846L327.576 27.546V27.114C327.528 26.718 327.36 26.364 327.072 26.052C326.784 25.74 326.424 25.494 325.992 25.314C325.56 25.134 325.098 25.044 324.606 25.044C323.886 25.044 323.256 25.158 322.716 25.386C322.188 25.614 321.774 25.968 321.474 26.448C321.186 26.916 321.042 27.516 321.042 28.248C321.042 28.908 321.21 29.478 321.546 29.958C321.882 30.438 322.35 30.81 322.95 31.074C323.55 31.338 324.24 31.47 325.02 31.47C325.692 31.47 326.274 31.374 326.766 31.182C327.258 30.99 327.726 30.726 328.17 30.39L329.052 31.74C328.74 32.004 328.35 32.25 327.882 32.478C327.414 32.694 326.91 32.868 326.37 33C325.842 33.12 325.308 33.18 324.768 33.18ZM336.606 33.18C335.694 33.18 334.86 33.042 334.104 32.766C333.36 32.49 332.736 32.058 332.232 31.47L333.492 30.354C333.9 30.786 334.362 31.11 334.878 31.326C335.406 31.542 335.988 31.65 336.624 31.65C336.876 31.65 337.128 31.626 337.38 31.578C337.632 31.53 337.86 31.458 338.064 31.362C338.268 31.266 338.43 31.14 338.55 30.984C338.67 30.828 338.73 30.648 338.73 30.444C338.73 30.096 338.526 29.826 338.118 29.634C337.902 29.55 337.638 29.46 337.326 29.364C337.014 29.268 336.648 29.178 336.228 29.094C335.52 28.938 334.908 28.764 334.392 28.572C333.876 28.368 333.462 28.122 333.15 27.834C332.922 27.606 332.748 27.348 332.628 27.06C332.52 26.772 332.466 26.442 332.466 26.07C332.466 25.674 332.562 25.308 332.754 24.972C332.958 24.636 333.24 24.348 333.6 24.108C333.96 23.868 334.38 23.682 334.86 23.55C335.34 23.418 335.856 23.352 336.408 23.352C336.9 23.352 337.398 23.412 337.902 23.532C338.418 23.64 338.898 23.808 339.342 24.036C339.798 24.252 340.176 24.528 340.476 24.864L339.45 26.07C339.174 25.842 338.862 25.638 338.514 25.458C338.178 25.278 337.83 25.14 337.47 25.044C337.11 24.936 336.774 24.882 336.462 24.882C336.198 24.882 335.934 24.906 335.67 24.954C335.406 24.99 335.172 25.056 334.968 25.152C334.776 25.236 334.62 25.35 334.5 25.494C334.38 25.638 334.32 25.812 334.32 26.016C334.32 26.172 334.356 26.316 334.428 26.448C334.512 26.568 334.62 26.676 334.752 26.772C334.956 26.904 335.232 27.024 335.58 27.132C335.928 27.24 336.342 27.342 336.822 27.438C337.446 27.57 337.998 27.726 338.478 27.906C338.97 28.074 339.378 28.284 339.702 28.536C339.978 28.74 340.182 28.986 340.314 29.274C340.458 29.562 340.53 29.892 340.53 30.264C340.53 30.852 340.35 31.368 339.99 31.812C339.642 32.244 339.174 32.58 338.586 32.82C337.998 33.06 337.338 33.18 336.606 33.18Z" fill="black"/>
</svg>
