<?xml version="1.0" encoding="utf-8"?>
<!-- Generator: Adobe Illustrator 27.1.1, SVG Export Plug-In . SVG Version: 6.00 Build 0)  -->
<svg version="1.1" id="Layer_1" xmlns="http://www.w3.org/2000/svg" xmlns:xlink="http://www.w3.org/1999/xlink" x="0px" y="0px"
	 viewBox="0 0 29 30" style="enable-background:new 0 0 29 30;" xml:space="preserve">
<style type="text/css">
	.st0{fill:none;stroke:#000000;stroke-width:2;stroke-miterlimit:10;}
</style>
<path id="Vector" class="st0" d="M11,21.5l8.4-6c0.8-0.6,0.8-1.6,0-2.2l-8.2-5.8 M14.5,28.5c-2.8,0-5.7,0-8.5,0c-3.2,0-5-1.8-5-5
	c0-5.7,0-11.3,0-17c0-3.2,1.8-5,5-5c5.7,0,11.3,0,17,0c3.2,0,5,1.8,5,5c0,5.7,0,11.3,0,17c0,3.2-1.8,5-5,5
	C20.2,28.5,17.3,28.5,14.5,28.5L14.5,28.5z M26.7,14.9c0-2.8,0-5.7,0-8.5c0-2.4-1.2-3.6-3.7-3.6c-5.7,0-11.3,0-17,0
	C3.5,2.8,2.3,4,2.3,6.5c0,5.6,0,11.2,0,16.8c0,2.6,1.2,3.8,3.8,3.8c5.6,0,11.1,0,16.7,0c2.7,0,3.9-1.2,3.9-3.9
	C26.7,20.5,26.7,17.7,26.7,14.9L26.7,14.9z"/>
</svg>
