<svg width="463" height="97" viewBox="0 0 463 97" fill="none" xmlns="http://www.w3.org/2000/svg">
<path d="M462.1 13.6581H0V22.0871H462.1V13.6581Z" fill="#EFC618"/>
<g opacity="0.5">
<path d="M462.1 13.6581H0V22.0871H462.1V13.6581Z" fill="#686868"/>
</g>
<path d="M462.1 72.983H0V81.412H462.1V72.983Z" fill="#EFC618"/>
<g opacity="0.5">
<path d="M462.1 72.983H0V81.412H462.1V72.983Z" fill="#686868"/>
</g>
<path d="M462.1 92.538H0V96.7525H462.1V92.538Z" fill="#53CC05"/>
<path d="M462.1 0.247498H0V4.46201H462.1V0.247498Z" fill="#53CC05"/>
<path d="M25.7091 7.9425H24.7604C21.4177 7.9425 18.7079 10.2984 18.7079 13.2045V80.9089C18.7079 83.815 21.4177 86.1709 24.7604 86.1709H25.7091C29.0519 86.1709 31.7617 83.815 31.7617 80.9089V13.2045C31.7617 10.2984 29.0519 7.9425 25.7091 7.9425Z" fill="#EFC618"/>
<path d="M94.1561 7.9425H93.2074C89.8647 7.9425 87.1549 10.2984 87.1549 13.2045V80.9089C87.1549 83.815 89.8647 86.1709 93.2074 86.1709H94.1561C97.4988 86.1709 100.209 83.815 100.209 80.9089V13.2045C100.209 10.2984 97.4988 7.9425 94.1561 7.9425Z" fill="#EFC618"/>
<path d="M162.613 7.9425H161.664C158.321 7.9425 155.611 10.2984 155.611 13.2045V80.9089C155.611 83.815 158.321 86.1709 161.664 86.1709H162.613C165.955 86.1709 168.665 83.815 168.665 80.9089V13.2045C168.665 10.2984 165.955 7.9425 162.613 7.9425Z" fill="#EFC618"/>
<path d="M231.059 7.9425H230.111C226.768 7.9425 224.058 10.2984 224.058 13.2045V80.9089C224.058 83.815 226.768 86.1709 230.111 86.1709H231.059C234.402 86.1709 237.112 83.815 237.112 80.9089V13.2045C237.112 10.2984 234.402 7.9425 231.059 7.9425Z" fill="#EFC618"/>
<path d="M299.506 7.9425H298.558C295.215 7.9425 292.505 10.2984 292.505 13.2045V80.9089C292.505 83.815 295.215 86.1709 298.558 86.1709H299.506C302.849 86.1709 305.559 83.815 305.559 80.9089V13.2045C305.559 10.2984 302.849 7.9425 299.506 7.9425Z" fill="#EFC618"/>
<path d="M367.953 7.9425H367.005C363.662 7.9425 360.952 10.2984 360.952 13.2045V80.9089C360.952 83.815 363.662 86.1709 367.005 86.1709H367.953C371.296 86.1709 374.006 83.815 374.006 80.9089V13.2045C374.006 10.2984 371.296 7.9425 367.953 7.9425Z" fill="#EFC618"/>
<path d="M436.41 7.9425H435.461C432.118 7.9425 429.409 10.2984 429.409 13.2045V80.9089C429.409 83.815 432.118 86.1709 435.461 86.1709H436.41C439.753 86.1709 442.462 83.815 442.462 80.9089V13.2045C442.462 10.2984 439.753 7.9425 436.41 7.9425Z" fill="#EFC618"/>
</svg>
