<svg width="25" height="25" viewBox="0 0 25 25" fill="none" xmlns="http://www.w3.org/2000/svg">
<path id="change-icon" d="M12.7151 0C8.08982 0 4.31928 3.77054 4.31928 8.39583V16.0676L2.09796 13.8463C2.00767 13.7533 1.89963 13.6794 1.78024 13.6289C1.66086 13.5784 1.53256 13.5524 1.40294 13.5524C1.21014 13.5525 1.02174 13.61 0.86185 13.7177C0.701955 13.8255 0.577835 13.9784 0.505369 14.1571C0.432904 14.3358 0.415388 14.532 0.455065 14.7206C0.494741 14.9093 0.589804 15.0818 0.728092 15.2162L4.51984 19.0079C4.61063 19.1263 4.72753 19.2221 4.86143 19.2879C4.99533 19.3537 5.14261 19.3877 5.2918 19.3872C5.44099 19.3867 5.58804 19.3518 5.72151 19.2851C5.85498 19.2184 5.97125 19.1219 6.06126 19.0029L9.84796 15.2162C9.94094 15.1269 10.0152 15.02 10.0663 14.9017C10.1174 14.7834 10.1444 14.6561 10.1458 14.5272C10.1471 14.3983 10.1226 14.2704 10.0739 14.1511C10.0252 14.0318 9.95317 13.9234 9.86203 13.8322C9.7709 13.7411 9.66249 13.6691 9.54316 13.6204C9.42384 13.5716 9.29599 13.5472 9.16711 13.5485C9.03822 13.5498 8.9109 13.5768 8.79259 13.628C8.67428 13.6791 8.56736 13.7533 8.47809 13.8463L6.25678 16.0676V8.39583C6.25678 4.81775 9.13702 1.9375 12.7151 1.9375C14.3915 1.9375 15.9036 2.5762 17.0543 3.62272C17.1476 3.71287 17.258 3.78336 17.379 3.83003C17.5 3.87671 17.6292 3.8986 17.7588 3.89442C17.8885 3.89024 18.016 3.86007 18.1337 3.80569C18.2515 3.75132 18.3572 3.67385 18.4444 3.57789C18.5317 3.48192 18.5988 3.36941 18.6418 3.24702C18.6847 3.12463 18.7027 2.99486 18.6946 2.8654C18.6864 2.73595 18.6524 2.60944 18.5945 2.49338C18.5365 2.37733 18.4559 2.27409 18.3573 2.18978C16.8692 0.836386 14.8866 0 12.7151 0ZM20.1271 5.15279C19.9793 5.15517 19.8341 5.1913 19.7025 5.25842C19.5709 5.32554 19.4564 5.42187 19.3677 5.54004L15.5823 9.32548C15.4893 9.41475 15.4151 9.52167 15.3639 9.63998C15.3128 9.75829 15.2858 9.88561 15.2845 10.0145C15.2832 10.1434 15.3076 10.2712 15.3563 10.3906C15.405 10.5099 15.477 10.6183 15.5682 10.7094C15.6593 10.8006 15.7677 10.8726 15.8871 10.9213C16.0064 10.97 16.1342 10.9945 16.2631 10.9931C16.392 10.9918 16.5193 10.9648 16.6376 10.9137C16.7559 10.8626 16.8629 10.7883 16.9521 10.6954L19.1734 8.47404V16.1458C19.1734 19.7239 16.2932 22.6042 12.7151 22.6042C11.0388 22.6042 9.52664 21.9655 8.37592 20.9189C8.28265 20.8288 8.17223 20.7583 8.05121 20.7116C7.93018 20.665 7.80102 20.6431 7.67137 20.6472C7.54173 20.6514 7.41425 20.6816 7.29648 20.736C7.17872 20.7903 7.07307 20.8678 6.9858 20.9638C6.89854 21.0597 6.83143 21.1723 6.78846 21.2946C6.74549 21.417 6.72754 21.5468 6.73566 21.6763C6.74378 21.8057 6.77782 21.9322 6.83575 22.0483C6.89368 22.1643 6.97432 22.2676 7.0729 22.3519C8.56105 23.7053 10.5436 24.5417 12.7151 24.5417C17.3404 24.5417 21.1109 20.7711 21.1109 16.1458V8.47404L23.3323 10.6954C23.4215 10.7883 23.5284 10.8626 23.6468 10.9137C23.7651 10.9648 23.8924 10.9918 24.0213 10.9931C24.1502 10.9945 24.278 10.97 24.3973 10.9213C24.5167 10.8726 24.6251 10.8006 24.7162 10.7094C24.8073 10.6183 24.8794 10.5099 24.9281 10.3906C24.9768 10.2712 25.0012 10.1434 24.9999 10.0145C24.9986 9.88561 24.9716 9.75829 24.9205 9.63998C24.8693 9.52167 24.7951 9.41475 24.7021 9.32548L20.9104 5.53373C20.8186 5.4135 20.7 5.31642 20.5639 5.25027C20.4279 5.18412 20.2783 5.15073 20.1271 5.15279Z" fill="black"/>
</svg>
