<svg width="18" height="24" viewBox="0 0 18 24" fill="none" xmlns="http://www.w3.org/2000/svg">
<g id="Vector">
<path d="M18 19.9618C18 21.8948 16.433 23.4618 14.5 23.4618C12.567 23.4618 11 21.8948 11 19.9618C11 18.0288 12.567 16.4618 14.5 16.4618C16.433 16.4618 18 18.0288 18 19.9618Z" fill="#53CC05"/>
<path d="M8.48465e-07 18.9616H3V0.461761H8.67262e-07L8.48465e-07 18.9616Z" fill="#53CC05"/>
<path d="M16.5 20.9618V17.9618L2 17.9616L2 20.9616L16.5 20.9618Z" fill="#53CC05"/>
<path d="M4 18.9616C4 19.3572 3.8827 19.7439 3.66294 20.0728C3.44318 20.4017 3.13082 20.658 2.76537 20.8094C2.39992 20.9608 1.99778 21.0004 1.60982 20.9232C1.22186 20.846 0.865492 20.6555 0.585787 20.3758C0.306082 20.0961 0.115601 19.7398 0.0384303 19.3518C-0.0387401 18.9638 0.000866577 18.5617 0.152242 18.1963C0.303617 17.8308 0.559962 17.5184 0.88886 17.2987C1.21776 17.0789 1.60444 16.9616 2 16.9616V18.9616H4Z" fill="#53CC05"/>
</g>
</svg>
