<svg xmlns="http://www.w3.org/2000/svg" viewBox="0 0 1500 700" width="100%" height="100%" fill="none">
	<style>
		@font-face {
			  font-family: 'League Spartan';
			  font-style: normal;
			  font-weight: 400;
			  font-display: swap;
			  src: url(https://fonts.gstatic.com/s/leaguespartan/v11/kJEqBuEW6A0lliaV_m88ja5TwvZwLZk.woff2) format('woff2');
			  unicode-range: U+0000-00FF, U+0131, U+0152-0153, U+02BB-02BC, U+02C6, U+02DA, U+02DC, U+0304, U+0308, U+0329, U+2000-206F, U+2074, U+20AC, U+2122, U+2191, U+2193, U+2212, U+2215, U+FEFF, U+FFFD;
			}	
		text{
				font-family: "League Spartan";
				font-size: 10px;
				fill: black;
			}
		path{
                stroke: #53CC05;
                stroke-width: 5;
				stroke-linecap: "round";
				stroke-linejoin: "round"
            }
		circle{
				r: 5;
				fill: #53CC05
			}
	</style>
	<path xmlns="http://www.w3.org/2000/svg" d="M400 43H146.054C130.624 43 118 55.5117 118 70.8037V656.618"/>
	<rect xmlns="http://www.w3.org/2000/svg" x="60" y="20" width="36" height="13" rx="6.5" fill="#53CC05"/>
	<text x="67" y="29" style = "font-size: 8; font-weight: bold; fill: white">LRT - 1</text>
	<text x="400" y="25" text-anchor="middle">Fernando Poe Jr.</text>
	<circle cx= "400" cy="43"/>
	<text x="290" y="25" text-anchor="middle">Balintawak</text>
	<circle cx= "290" cy="43"/>
	<text x="180" y="25" text-anchor="middle">Monumento</text>
	<circle cx= "180" cy="43"/>
	<text x="100" y="69" text-anchor="end">5th Avenue</text>
	<circle cx= "118" cy="66"/>
	<text x="100" y="105" text-anchor="end">R. Papa</text>
	<circle cx= "118" cy="102"/>
	<text x="100" y="142" text-anchor="end">Abad Santos</text>
	<circle cx= "118" cy="139"/>
	<text x="100" y="179" text-anchor="end">Blumentritt</text>
	<circle cx= "118" cy="176"/>
	<text x="100" y="216" text-anchor="end">Bambang</text>
	<circle cx= "118" cy="213"/>
	<text x="100" y="253" text-anchor="end">Tayuman</text>
	<circle cx= "118" cy="250"/>
	<text x="100" y="290" text-anchor="end">Doroteo Jose</text>
	<circle cx= "118" cy="287"/>
	<text x="100" y="327" text-anchor="end">Carriedo</text>
	<circle cx= "118" cy="324"/>
	<text x="100" y="364" text-anchor="end">Central Terminal</text>
	<circle cx= "118" cy="361"/>
	<text x="100" y="401" text-anchor="end">United Nations</text>
	<circle cx= "118" cy="398"/>
	<text x="100" y="438" text-anchor="end">Pedro Gil</text>
	<circle cx= "118" cy="435"/>
	<text x="100" y="475" text-anchor="end">Quirino</text>
	<circle cx= "118" cy="472"/>
	<text x="100" y="512" text-anchor="end">Vito Cruz</text>
	<circle cx= "118" cy="509"/>
	<text x="100" y="549" text-anchor="end">Gil Puyat</text>
	<circle cx= "118" cy="546"/>
	<text x="100" y="586" text-anchor="end">Libertad</text>
	<circle cx= "118" cy="583"/>
	<text x="100" y="623" text-anchor="end">EDSA</text>
	<circle cx= "118" cy="620"/>
	<text x="100" y="661" text-anchor="end">Baclaran</text>
	<circle cx= "118" cy="657"/>
	
	<rect x="1067" y="117" width="280" height="400" rx="27" ry="27" fill="#fafafa" stroke="#dfdfe5" stroke-width="2" />
	<text x="1205" y="170" text-anchor="middle" style = "font-size: 20">Light Rail Transit Line 1</text>
	<rect xmlns="http://www.w3.org/2000/svg" x="1175" y="185" width="69" height="17" rx="10" fill="#53CC05" stroke="#53CC05" stroke-width="2"/>
	<text x="1211" y="198" text-anchor="middle" style = "font-size: 15; font-weight: semi-bold; fill: black">L R T - 1</text>
	<text x="1211" y="225" text-anchor="middle" style = "font-size: 10; fill: black; letter-spacing: 1px;">NUMBER OF STATIONS: 20</text>
	<path xmlns="http://www.w3.org/2000/svg" d="M1170 255 H1250" style = "stroke-width: 3"/>
	<circle cx= "1170" cy="255" style = "r:4"/>
	<circle cx= "1250" cy="255" style = "r:4"/>
	<text x="1135" y="275" text-anchor="start" style="font-size: 9">Fernando Poe Jr.</text>
	<text x="1145" y="290" text-anchor="start" style="font-size: 8; font-weight: bold">FIRST STOP</text>
	<text x="1235" y="275" text-anchor="start" style="font-size: 9">Baclaran</text>
	<text x="1235" y="290" text-anchor="start" style="font-size: 8; font-weight: bold">LAST STOP</text>
	<text x="1211" y="325" text-anchor="middle" style="letter-spacing: 2px">OPERATING HOURS</text>
	<text x="1211" y="335" text-anchor="middle" style="font-size: 8; letter-spacing: 1.5px; fill: #AEAEAE">*may vary based on</text>
	<text x="1211" y="343" text-anchor="middle" style="font-size: 8; letter-spacing: 1.5px; fill: #AEAEAE">given advisories</text>
	
	<text x="1211" y="380" text-anchor="middle" style="font-size: 14; letter-spacing: 1.5px">Monday to Friday</text>
	<text x="1211" y="405" text-anchor="middle" style="font-size: 14; letter-spacing: 1.5px">5:00 AM - 10:00 PM</text>
	<text x="1211" y="445" text-anchor="middle" style="font-size: 14; letter-spacing: 1.5px">Saturday and Sunday</text>
	<text x="1211" y="470" text-anchor="middle" style="font-size: 14; letter-spacing: 1.5px">5:00 AM - 9:30 PM</text>

	
	<rect xmlns="http://www.w3.org/2000/svg" x="881" y="600" width="531" height="98" rx="40" fill="#FFFFFF" stroke="#FAFAFA" stroke-width="2"/>
	<a href="lrt1.svg">
		<rect xmlns="http://www.w3.org/2000/svg" x="910" y="625" width="120" height="40" rx="20" fill="#53CC05" stroke="#53CC05" stroke-width="5"/>
		<text x="970" y="650" text-anchor="middle" style = "font-size: 15; font-weight: semi-bold; fill: white">L R T - 1</text>
	</a>
	<a href="lrt2.svg">
		<rect xmlns="http://www.w3.org/2000/svg" x="1050" y="625" width="120" height="40" rx="20" fill="#FAFAFA" stroke="#9202CE" stroke-width="5"/>
		<text x="1110" y="650" text-anchor="middle" style = "font-size: 15; font-weight: semi-bold; fill:#9202CE">L R T - 2</text>
	</a>
	<a href="mrt3.svg">
		<rect xmlns="http://www.w3.org/2000/svg" x="1190" y="625" width="120" height="40" rx="20" fill="#FAFAFA" stroke="#E5BA03" stroke-width="5"/>
		<text x="1250" y="650" text-anchor="middle" style = "font-size: 15; font-weight: semi-bold; fill:#E5BA03">M R T - 3</text>
	</a>
	<a href="main.svg">
		<rect xmlns="http://www.w3.org/2000/svg" x="1340" y="625" width="32" height="40" rx="5" fill ="black"/>
		<rect xmlns="http://www.w3.org/2000/svg" x="1350" y="624" width="4" height="2" rx="1" fill ="black"/>
		<rect xmlns="http://www.w3.org/2000/svg" x="1358" y="624" width="4" height="2" rx="1" fill ="black"/>
		<rect xmlns="http://www.w3.org/2000/svg" x="1352" y="627" width="8" height="1.5" fill ="white"/>
		<rect xmlns="http://www.w3.org/2000/svg" x="1345" y="632" width="22" height="15" rx="3" fill ="white"/>
		<circle cx="1348" cy="658" style="r:2.5; fill: white"/>
		<circle cx="1364" cy="658" style="r:2.5; fill: white"/>
		<line x1="1342" y1="670" x2="1348" y2="663" stroke="black" stroke-width="2"/>
		<line x1="1370" y1="670" x2="1364" y2="663" stroke="black" stroke-width="2"/>
	</a>
</svg>