<svg xmlns="http://www.w3.org/2000/svg" viewBox="0 0 360 750" width="100%" height="100%" fill="none">
	<style>
		@font-face {
			  font-family: 'League Spartan';
			  font-style: normal;
			  font-weight: 400;
			  font-display: swap;
			  src: url(https://fonts.gstatic.com/s/leaguespartan/v11/kJEqBuEW6A0lliaV_m88ja5TwvZwLZk.woff2) format('woff2');
			  unicode-range: U+0000-00FF, U+0131, U+0152-0153, U+02BB-02BC, U+02C6, U+02DA, U+02DC, U+0304, U+0308, U+0329, U+2000-206F, U+2074, U+20AC, U+2122, U+2191, U+2193, U+2212, U+2215, U+FEFF, U+FFFD;
			}	
		text{
				font-family: "League Spartan";
				font-size: 10px;
				fill: black;
			}
		line{
                stroke: #53CC05;
                stroke-width: 5;
				stroke-linecap: "round";
				stroke-linejoin: "round"
            }
		circle{
				r: 5;
				fill: #53CC05
			}
	</style>
	<rect xmlns="http://www.w3.org/2000/svg" x="95" y="50" width="36" height="13" rx="6.5" fill="#53CC05"/>
	<text x="102.5" y="59" style = "font-size: 8; font-weight: bold; fill: white">LRT - 1</text>
	<line x1="125" y1="80" x2="125" y2="660"/>
	<text x="110" y="83" text-anchor="end">Fernando Poe Jr.</text>
	<circle cx= "125" cy="80"/>
	<text x="110" y="115" text-anchor="end">Balintawak</text>
	<circle cx= "125" cy="112"/>
	<text x="110" y="147" text-anchor="end">Monumento</text>
	<circle cx= "125" cy="143"/>
	<text x="110" y="179" text-anchor="end">5th Avenue</text>
	<circle cx= "125" cy="176"/>
	<text x="110" y="211" text-anchor="end">R. Papa</text>
	<circle cx= "125" cy="208"/>
	<text x="110" y="243" text-anchor="end">Abad Santos</text>
	<circle cx= "125" cy="240"/>
	<text x="110" y="275" text-anchor="end">Blumentritt</text>
	<circle cx= "125" cy="272"/>
	<text x="110" y="307" text-anchor="end">Bambang</text>
	<circle cx= "125" cy="304"/>
	<text x="110" y="339" text-anchor="end">Tayuman</text>
	<circle cx= "125" cy="336"/>
	<text x="110" y="371" text-anchor="end">Doroteo Jose</text>
	<circle cx= "125" cy="368"/>
	<text x="110" y="403" text-anchor="end">Carriedo</text>
	<circle cx= "125" cy="400"/>
	<text x="110" y="435" text-anchor="end">Central Terminal</text>
	<circle cx= "125" cy="432"/>
	<text x="110" y="467" text-anchor="end">United Nations</text>
	<circle cx= "125" cy="464"/>
	<text x="110" y="499" text-anchor="end">Pedro Gil</text>
	<circle cx= "125" cy="496"/>
	<text x="110" y="531" text-anchor="end">Quirino Avenue</text>
	<circle cx= "125" cy="528"/>
	<text x="110" y="563" text-anchor="end">Vito Cruz</text>
	<circle cx= "125" cy="560"/>
	<text x="110" y="595" text-anchor="end">Gil Puyat</text>
	<circle cx= "125" cy="592"/>
	<text x="110" y="627" text-anchor="end">EDSA</text>
	<circle cx= "125" cy="624"/>
	<text x="110" y="659" text-anchor="end">Baclaran</text>
	<circle cx= "125" cy="656"/>
	
	
	
	<rect x="164" y="95" width="175" height="337" rx="27" ry="27" fill="#fafafa" stroke="#dfdfe5" stroke-width="2" />
	<text x="250.5" y="135" text-anchor="middle" style = "font-size: 15">Light Rail Transit Line 1</text>
	<rect xmlns="http://www.w3.org/2000/svg" x="225" y="150" width="54" height="13" rx="5" fill="#53CC05" stroke="#53CC05" stroke-width="2"/>
	<text x="252" y="161" text-anchor="middle" style = "font-size: 12; font-weight: semi-bold; fill: black">L R T - 1</text>
	<text x="256.5" y="190" text-anchor="middle" style = "font-size: 10; fill: black; letter-spacing: 1.3px;">NUMBER OF STATIONS: 20</text>
	<line x1="220" y1="220" x2="293" y2="220" style="stroke-width:3"/>
	<circle cx= "220" cy="220" style = "r:4"/>
	<circle cx= "293" cy="220" style = "r:4"/>
	<text x="190" y="240" text-anchor="start" style="font-size: 9">Fernando Poe Jr.</text>
	<text x="200" y="250" text-anchor="start" style="font-size: 8; font-weight: bold">FIRST STOP</text>
	<text x="277" y="240" text-anchor="start" style="font-size: 9">Baclaran</text>
	<text x="275" y="250" text-anchor="start" style="font-size: 8; font-weight: bold">LAST STOP</text>
	<text x="256.5" y="290" text-anchor="middle" style="letter-spacing: 2px">OPERATING HOURS</text>
	<text x="256.5" y="300" text-anchor="middle" style="font-size: 8; letter-spacing: 1.5px; fill: #AEAEAE">*may vary based on</text>
	<text x="256.5" y="305" text-anchor="middle" style="font-size: 8; letter-spacing: 1.5px; fill: #AEAEAE">given advisories</text>
	
	<text x="256.5" y="345" text-anchor="middle" style="letter-spacing: 1.5px">Monday to Friday</text>
	<text x="256.5" y="355" text-anchor="middle" style="letter-spacing: 1.5px">5:00 AM - 10:00 PM</text>
	<text x="256.5" y="385" text-anchor="middle" style="letter-spacing: 1.5px">Saturday and Sunday</text>
	<text x="256.5" y="395" text-anchor="middle" style="letter-spacing: 1.5px">5:00 AM - 9:30 PM</text>

	
	<rect xmlns="http://www.w3.org/2000/svg" x="183" y="490" width="135" height="220" rx="22" fill="#FFFFFF" stroke="#FAFAFA" stroke-width="2"/>
	<a href="lrt1-m.svg">
		<rect xmlns="http://www.w3.org/2000/svg" x="190" y="505" width="120" height="40" rx="20" fill="#53CC05" stroke="#53CC05" stroke-width="5"/>
		<text x="250" y="530" text-anchor="middle" style = "font-size: 15; font-weight: semi-bold; fill: white">L R T - 1</text>
	</a>
	<a href="lrt2-m.svg">
		<rect xmlns="http://www.w3.org/2000/svg" x="190" y="555" width="120" height="40" rx="20" fill="#FAFAFA" stroke="#9202CE" stroke-width="5"/>
		<text x="250" y="580" text-anchor="middle" style = "font-size: 15; font-weight: semi-bold; fill:#9202CE">L R T - 2</text>
	</a>
	<a href="mrt3-m.svg">
		<rect xmlns="http://www.w3.org/2000/svg" x="190" y="605" width="120" height="40" rx="20" fill="#FAFAFA" stroke="#E5BA03" stroke-width="5"/>
		<text x="250" y="630" text-anchor="middle" style = "font-size: 15; font-weight: semi-bold; fill:#E5BA03">M R T - 3</text>
	</a>
	<a href="main-m.svg">
		<rect xmlns="http://www.w3.org/2000/svg" x="240" y="655" width="32" height="40" rx="5" fill ="black"/>
		<rect xmlns="http://www.w3.org/2000/svg" x="250" y="653.8" width="4" height="2" rx="1" fill ="black"/>
		<rect xmlns="http://www.w3.org/2000/svg" x="258" y="653.8" width="4" height="2" rx="1" fill ="black"/>
		<rect xmlns="http://www.w3.org/2000/svg" x="252" y="657" width="8" height="1.5" fill ="white"/>
		<rect xmlns="http://www.w3.org/2000/svg" x="245" y="664" width="22" height="15" rx="3" fill ="white"/>
		<circle cx="248" cy="688" style="r:2.5; fill: white"/>
		<circle cx="264" cy="688" style="r:2.5; fill: white"/>
		<line x1="248" y1="692" x2="242" y2="699" style ="stroke:black; stroke-width:2"/>
		<line x1="263" y1="692" x2="269" y2="699" style = "stroke:black; stroke-width:2"/>
	</a>
</svg>