<svg xmlns="http://www.w3.org/2000/svg" viewBox="0 0 1500 700" width="100%" height="100%" fill="none">
	<style>
		@font-face {
			  font-family: 'League Spartan';
			  font-style: normal;
			  font-weight: 400;
			  font-display: swap;
			  src: url(https://fonts.gstatic.com/s/leaguespartan/v11/kJEqBuEW6A0lliaV_m88ja5TwvZwLZk.woff2) format('woff2');
			  unicode-range: U+0000-00FF, U+0131, U+0152-0153, U+02BB-02BC, U+02C6, U+02DA, U+02DC, U+0304, U+0308, U+0329, U+2000-206F, U+2074, U+20AC, U+2122, U+2191, U+2193, U+2212, U+2215, U+FEFF, U+FFFD;
			}
		text{
				font-family: "League Spartan";
				font-size: 10px;
				fill: black;
			}
		path{
                stroke: #9202CE;
                stroke-width: 5;
				stroke-linecap: "round";
				stroke-linejoin: "round"
            }
		circle{
				r: 5;
				fill: #9202CE
			}
	</style>
	
	<path xmlns="http://www.w3.org/2000/svg" d="M138.941 285.5L331.462 285.5C346.453 285.205 358.247 278.186 357.967 263.676L357.227 232.305C356.947 217.795 368.875 205.791 383.867 205.496L846.498 205.496"/>
	<rect xmlns="http://www.w3.org/2000/svg" x="830" y="230" width="36" height="13" rx="6.5" fill="#9202CE"/>
	<text x="836" y="239" style = "font-size: 8; font-weight: bold; fill: white">LRT - 2</text>
	<text class="recto" x="140" y="268" text-anchor="middle">Recto</text>
	<circle id="recto" cx= "140" cy="285" pointer-events="visiblePainted" />
	<text x="200" y="268" text-anchor="middle">Legarda</text>
	<circle cx= "200" cy="285"/>
	<text x="260" y="268" text-anchor="middle">Pureza</text>
	<circle cx= "260" cy="285"/>
	<text x="320" y="268" text-anchor="middle">V. Mapa</text>
	<circle cx= "320" cy="285"/>
	<text x="330" y="235" text-anchor="middle">J. Ruiz</text>
	<circle cx= "357.5" cy="232"/>
	<text x="385" y="185" text-anchor="middle">Gilmore</text>
	<circle cx= "385" cy="205"/>
	<text x="450" y="175" text-anchor="middle">Betty-Go</text>
	<text x="450" y="185" text-anchor="middle">Belmonte</text>
	<circle cx= "450" cy="205"/>
	<text x="515" y="165" text-anchor="middle">Araneta</text>
	<text x="515" y="175" text-anchor="middle">Center -</text>
	<text x="515" y="185" text-anchor="middle">Cubao</text>
	<circle cx= "512" cy="206"/>
	<text x="580" y="185" text-anchor="middle">Anonas</text>
	<circle cx= "580" cy="205"/>
	<text x="645" y="185" text-anchor="middle">Katipunan</text>
	<circle cx= "645" cy="205"/>
	<text x="710" y="185" text-anchor="middle">Santolan</text>
	<circle cx= "710" cy="205"/>
	<text x="775" y="185" text-anchor="middle">Marikina</text>
	<circle cx= "775" cy="205"/>
	<text x="842" y="185" text-anchor="middle">Antipolo</text>
	<circle cx= "845" cy="205"/>

	<rect x="1067" y="117" width="280" height="400" rx="27" ry="27" fill="#fafafa" stroke="#dfdfe5" stroke-width="2" />
	<text x="1205" y="170" text-anchor="middle" style = "font-size: 20">Light Rail Transit Line 2</text>
	<rect xmlns="http://www.w3.org/2000/svg" x="1175" y="185" width="69" height="17" rx="10" fill="#E19AFF" stroke="#E19AFF" stroke-width="2"/>
	<text x="1211" y="198" text-anchor="middle" style = "font-size: 15; font-weight: semi-bold; fill: black">L R T - 2</text>
	<text x="1211" y="225" text-anchor="middle" style = "font-size: 10; fill: black; letter-spacing: 1px;">NUMBER OF STATIONS: 13</text>
	<path xmlns="http://www.w3.org/2000/svg" d="M1170 255 H1250" style = "stroke-width: 3"/>
	<circle cx= "1170" cy="255" style = "r:4"/>
	<circle cx= "1250" cy="255" style = "r:4"/>
	<text x="1155" y="275" text-anchor="start" style="font-size: 9">Antipolo</text>
	<text x="1150" y="290" text-anchor="start" style="font-size: 8; font-weight: bold">FIRST STOP</text>
	<text x="1242" y="275" text-anchor="start" style="font-size: 9">Recto</text>
	<text x="1235" y="290" text-anchor="start" style="font-size: 8; font-weight: bold">LAST STOP</text>
	<text x="1211" y="325" text-anchor="middle" style="letter-spacing: 2px">OPERATING HOURS</text>
	<text x="1211" y="335" text-anchor="middle" style="font-size: 8; letter-spacing: 1.5px; fill: #AEAEAE">*may vary based on</text>
	<text x="1211" y="343" text-anchor="middle" style="font-size: 8; letter-spacing: 1.5px; fill: #AEAEAE">given advisories</text>
	
	<text x="1211" y="380" text-anchor="middle" style="font-size: 14; letter-spacing: 1.5px">Monday to Friday</text>
	<text x="1211" y="405" text-anchor="middle" style="font-size: 14; letter-spacing: 1.5px">5:00 AM - 9:30 PM</text>
	<text x="1211" y="445" text-anchor="middle" style="font-size: 14; letter-spacing: 1.5px">Saturday and Sunday</text>
	<text x="1211" y="470" text-anchor="middle" style="font-size: 14; letter-spacing: 1.5px">5:00 AM - 9:00 PM</text>

	<rect xmlns="http://www.w3.org/2000/svg" x="881" y="600" width="531" height="98" rx="40" fill="#FFFFFF" stroke="#FAFAFA" stroke-width="2"/>
	<a href="lrt1.svg">
		<rect xmlns="http://www.w3.org/2000/svg" x="910" y="625" width="120" height="40" rx="20" fill="#FAFAFA" stroke="#53CC05" stroke-width="5"/>
		<text x="970" y="650" text-anchor="middle" style = "font-size: 15; font-weight: semi-bold; fill:#53CC05">L R T - 1</text>
	</a>
	<a href="lrt2.svg">
		<rect xmlns="http://www.w3.org/2000/svg" x="1050" y="625" width="120" height="40" rx="20" fill="#9202CE" stroke="#9202CE" stroke-width="5"/>
		<text x="1110" y="650" text-anchor="middle" style = "font-size: 15; font-weight: semi-bold; fill:white">L R T - 2</text>
	</a>
	<a href="mrt3.svg">
		<rect xmlns="http://www.w3.org/2000/svg" x="1190" y="625" width="120" height="40" rx="20" fill="#FAFAFA" stroke="#E5BA03" stroke-width="5"/>
		<text x="1250" y="650" text-anchor="middle" style = "font-size: 15; font-weight: semi-bold; fill:#E5BA03">M R T - 3</text>
	</a>
	<a href="main.svg">
		<rect xmlns="http://www.w3.org/2000/svg" x="1340" y="625" width="32" height="40" rx="5" fill ="black"/>
		<rect xmlns="http://www.w3.org/2000/svg" x="1350" y="624" width="4" height="2" rx="1" fill ="black"/>
		<rect xmlns="http://www.w3.org/2000/svg" x="1358" y="624" width="4" height="2" rx="1" fill ="black"/>
		<rect xmlns="http://www.w3.org/2000/svg" x="1352" y="627" width="8" height="1.5" fill ="white"/>
		<rect xmlns="http://www.w3.org/2000/svg" x="1345" y="632" width="22" height="15" rx="3" fill ="white"/>
		<circle cx="1348" cy="658" style="r:2.5; fill: white"/>
		<circle cx="1364" cy="658" style="r:2.5; fill: white"/>
		<line x1="1342" y1="670" x2="1348" y2="663" stroke="black" stroke-width="2"/>
		<line x1="1370" y1="670" x2="1364" y2="663" stroke="black" stroke-width="2"/>
	</a>
	
</svg>