<svg width="18" height="23" viewBox="0 0 18 23" fill="none" xmlns="http://www.w3.org/2000/svg">
<g id="Vector">
<path d="M18 3.96176C18 5.89476 16.433 7.46176 14.5 7.46176C12.567 7.46176 11 5.89476 11 3.96176C11 2.02876 12.567 0.461761 14.5 0.461761C16.433 0.461761 18 2.02876 18 3.96176Z" fill="#E5BA03"/>
<path d="M8.50174e-07 4.4619H3V22.9618H8.6897e-07L8.50174e-07 4.4619Z" fill="#E5BA03"/>
<path d="M16.5 2.46176V5.46176L2 5.4619L2 2.4619L16.5 2.46176Z" fill="#E5BA03"/>
<path d="M4 4.4619C4 4.06634 3.8827 3.67966 3.66294 3.35076C3.44318 3.02186 3.13082 2.76552 2.76537 2.61414C2.39992 2.46277 1.99778 2.42316 1.60982 2.50033C1.22186 2.5775 0.865492 2.76798 0.585787 3.04769C0.306082 3.32739 0.115601 3.68376 0.0384303 4.07172C-0.0387401 4.45968 0.000866577 4.86181 0.152242 5.22727C0.303617 5.59272 0.559962 5.90507 0.88886 6.12484C1.21776 6.3446 1.60444 6.4619 2 6.4619V4.4619H4Z" fill="#E5BA03"/>
</g>
</svg>
