<svg width="1440" height="416" viewBox="0 0 1440 416" fill="none" xmlns="http://www.w3.org/2000/svg">
<g clip-path="url(#clip0_327_944)">
<path d="M1036.24 202.1H799.23C796.596 202.1 794.46 204.236 794.46 206.87V260.37C794.46 263.004 796.596 265.14 799.23 265.14H1036.24C1038.87 265.14 1041.01 263.004 1041.01 260.37V206.87C1041.01 204.236 1038.87 202.1 1036.24 202.1Z" fill="#D8D8D6"/>
<path d="M924.07 196.68H864.54C863.369 196.68 862.42 197.629 862.42 198.8V202.01C862.42 203.181 863.369 204.13 864.54 204.13H924.07C925.241 204.13 926.19 203.181 926.19 202.01V198.8C926.19 197.629 925.241 196.68 924.07 196.68Z" fill="#D8D8D6"/>
<path d="M793.32 206.29H790.31C789.084 206.29 788.09 207.284 788.09 208.51V260.59C788.09 261.816 789.084 262.81 790.31 262.81H793.32C794.546 262.81 795.54 261.816 795.54 260.59V208.51C795.54 207.284 794.546 206.29 793.32 206.29Z" fill="#D8D8D6"/>
<path d="M786.1 206.29H783.09C781.864 206.29 780.87 207.284 780.87 208.51V260.59C780.87 261.816 781.864 262.81 783.09 262.81H786.1C787.326 262.81 788.32 261.816 788.32 260.59V208.51C788.32 207.284 787.326 206.29 786.1 206.29Z" fill="#D8D8D6"/>
<path d="M776.04 202.1H539.03C536.396 202.1 534.26 204.236 534.26 206.87V260.37C534.26 263.004 536.396 265.14 539.03 265.14H776.04C778.674 265.14 780.81 263.004 780.81 260.37V206.87C780.81 204.236 778.674 202.1 776.04 202.1Z" fill="#D8D8D6"/>
<path d="M663.87 196.68H604.34C603.169 196.68 602.22 197.629 602.22 198.8V202.01C602.22 203.181 603.169 204.13 604.34 204.13H663.87C665.041 204.13 665.99 203.181 665.99 202.01V198.8C665.99 197.629 665.041 196.68 663.87 196.68Z" fill="#D8D8D6"/>
<path d="M533.13 206.29H530.12C528.894 206.29 527.9 207.284 527.9 208.51V260.59C527.9 261.816 528.894 262.81 530.12 262.81H533.13C534.356 262.81 535.35 261.816 535.35 260.59V208.51C535.35 207.284 534.356 206.29 533.13 206.29Z" fill="#D8D8D6"/>
<path d="M525.9 206.29H522.89C521.664 206.29 520.67 207.284 520.67 208.51V260.59C520.67 261.816 521.664 262.81 522.89 262.81H525.9C527.126 262.81 528.12 261.816 528.12 260.59V208.51C528.12 207.284 527.126 206.29 525.9 206.29Z" fill="#D8D8D6"/>
<g opacity="0.1">
<path d="M867.08 212.49H845.55C843.44 212.49 841.73 214.2 841.73 216.31V261.31C841.73 263.42 843.44 265.13 845.55 265.13H867.08C869.19 265.13 870.9 263.42 870.9 261.31V216.31C870.9 214.2 869.19 212.49 867.08 212.49Z" fill="#191919" stroke="black" stroke-width="1.02" stroke-miterlimit="10"/>
<path d="M856.32 212.49V265.14" stroke="black" stroke-width="1.02" stroke-miterlimit="10"/>
<path d="M850.14 217.69H847.67C846.488 217.69 845.53 218.648 845.53 219.83V236.67C845.53 237.852 846.488 238.81 847.67 238.81H850.14C851.322 238.81 852.28 237.852 852.28 236.67V219.83C852.28 218.648 851.322 217.69 850.14 217.69Z" stroke="black" stroke-width="1.02" stroke-miterlimit="10"/>
<path d="M864.57 217.69H862.1C860.918 217.69 859.96 218.648 859.96 219.83V236.67C859.96 237.852 860.918 238.81 862.1 238.81H864.57C865.752 238.81 866.71 237.852 866.71 236.67V219.83C866.71 218.648 865.752 217.69 864.57 217.69Z" stroke="black" stroke-width="1.02" stroke-miterlimit="10"/>
</g>
<g opacity="0.1">
<path d="M992.14 212.49H970.61C968.5 212.49 966.79 214.2 966.79 216.31V261.31C966.79 263.42 968.5 265.13 970.61 265.13H992.14C994.25 265.13 995.96 263.42 995.96 261.31V216.31C995.96 214.2 994.25 212.49 992.14 212.49Z" fill="#191919" stroke="black" stroke-width="1.02" stroke-miterlimit="10"/>
<path d="M981.39 212.49V265.14" stroke="black" stroke-width="1.02" stroke-miterlimit="10"/>
<path d="M975.2 217.69H972.73C971.548 217.69 970.59 218.648 970.59 219.83V236.67C970.59 237.852 971.548 238.81 972.73 238.81H975.2C976.382 238.81 977.34 237.852 977.34 236.67V219.83C977.34 218.648 976.382 217.69 975.2 217.69Z" stroke="black" stroke-width="1.02" stroke-miterlimit="10"/>
<path d="M989.64 217.69H987.17C985.988 217.69 985.03 218.648 985.03 219.83V236.67C985.03 237.852 985.988 238.81 987.17 238.81H989.64C990.822 238.81 991.78 237.852 991.78 236.67V219.83C991.78 218.648 990.822 217.69 989.64 217.69Z" stroke="black" stroke-width="1.02" stroke-miterlimit="10"/>
</g>
<g opacity="0.1">
<path d="M938.95 212.49H898.9C895.862 212.49 893.4 214.952 893.4 217.99V235.7C893.4 238.738 895.862 241.2 898.9 241.2H938.95C941.988 241.2 944.45 238.738 944.45 235.7V217.99C944.45 214.952 941.988 212.49 938.95 212.49Z" fill="#282828" stroke="black" stroke-width="1.02" stroke-miterlimit="10"/>
<path d="M893.4 220.25H944.45" stroke="black" stroke-width="1.02" stroke-miterlimit="10"/>
</g>
<g opacity="0.1">
<path d="M817.9 212.49H810.24C807.202 212.49 804.74 214.952 804.74 217.99V235.7C804.74 238.738 807.202 241.2 810.24 241.2H817.9C820.938 241.2 823.4 238.738 823.4 235.7V217.99C823.4 214.952 820.938 212.49 817.9 212.49Z" fill="#282828" stroke="black" stroke-width="0.61" stroke-miterlimit="10"/>
<path d="M804.74 220.25H823.4" stroke="black" stroke-width="0.61" stroke-miterlimit="10"/>
</g>
<g opacity="0.1">
<path d="M609.65 212.49H588.12C586.01 212.49 584.3 214.2 584.3 216.31V261.31C584.3 263.42 586.01 265.13 588.12 265.13H609.65C611.76 265.13 613.47 263.42 613.47 261.31V216.31C613.47 214.2 611.76 212.49 609.65 212.49Z" fill="#191919" stroke="black" stroke-width="1.02" stroke-miterlimit="10"/>
<path d="M598.89 212.49V265.14" stroke="black" stroke-width="1.02" stroke-miterlimit="10"/>
<path d="M592.71 217.69H590.24C589.058 217.69 588.1 218.648 588.1 219.83V236.67C588.1 237.852 589.058 238.81 590.24 238.81H592.71C593.892 238.81 594.85 237.852 594.85 236.67V219.83C594.85 218.648 593.892 217.69 592.71 217.69Z" stroke="black" stroke-width="1.02" stroke-miterlimit="10"/>
<path d="M607.14 217.69H604.67C603.488 217.69 602.53 218.648 602.53 219.83V236.67C602.53 237.852 603.488 238.81 604.67 238.81H607.14C608.322 238.81 609.28 237.852 609.28 236.67V219.83C609.28 218.648 608.322 217.69 607.14 217.69Z" stroke="black" stroke-width="1.02" stroke-miterlimit="10"/>
</g>
<g opacity="0.1">
<path d="M730.66 212.49H709.13C707.02 212.49 705.31 214.2 705.31 216.31V261.31C705.31 263.42 707.02 265.13 709.13 265.13H730.66C732.77 265.13 734.48 263.42 734.48 261.31V216.31C734.48 214.2 732.77 212.49 730.66 212.49Z" fill="#191919" stroke="black" stroke-width="1.02" stroke-miterlimit="10"/>
<path d="M719.9 212.49V265.14" stroke="black" stroke-width="1.02" stroke-miterlimit="10"/>
<path d="M713.72 217.69H711.25C710.068 217.69 709.11 218.648 709.11 219.83V236.67C709.11 237.852 710.068 238.81 711.25 238.81H713.72C714.902 238.81 715.86 237.852 715.86 236.67V219.83C715.86 218.648 714.902 217.69 713.72 217.69Z" stroke="black" stroke-width="1.02" stroke-miterlimit="10"/>
<path d="M728.15 217.69H725.68C724.498 217.69 723.54 218.648 723.54 219.83V236.67C723.54 237.852 724.498 238.81 725.68 238.81H728.15C729.332 238.81 730.29 237.852 730.29 236.67V219.83C730.29 218.648 729.332 217.69 728.15 217.69Z" stroke="black" stroke-width="1.02" stroke-miterlimit="10"/>
</g>
<g opacity="0.1">
<path d="M677.46 212.49H637.41C634.372 212.49 631.91 214.952 631.91 217.99V235.7C631.91 238.738 634.372 241.2 637.41 241.2H677.46C680.498 241.2 682.96 238.738 682.96 235.7V217.99C682.96 214.952 680.498 212.49 677.46 212.49Z" fill="#282828" stroke="black" stroke-width="1.02" stroke-miterlimit="10"/>
<path d="M631.91 220.25H682.96" stroke="black" stroke-width="1.02" stroke-miterlimit="10"/>
</g>
<g opacity="0.1">
<path d="M560.48 212.49H552.82C549.782 212.49 547.32 214.952 547.32 217.99V235.7C547.32 238.738 549.782 241.2 552.82 241.2H560.48C563.518 241.2 565.98 238.738 565.98 235.7V217.99C565.98 214.952 563.518 212.49 560.48 212.49Z" fill="#282828" stroke="black" stroke-width="0.61" stroke-miterlimit="10"/>
<path d="M547.32 220.25H565.98" stroke="black" stroke-width="0.61" stroke-miterlimit="10"/>
</g>
<g opacity="0.1">
<path d="M765.77 212.49H758.11C755.072 212.49 752.61 214.952 752.61 217.99V235.7C752.61 238.738 755.072 241.2 758.11 241.2H765.77C768.808 241.2 771.27 238.738 771.27 235.7V217.99C771.27 214.952 768.808 212.49 765.77 212.49Z" fill="#282828" stroke="black" stroke-width="0.61" stroke-miterlimit="10"/>
<path d="M752.61 220.25H771.27" stroke="black" stroke-width="0.61" stroke-miterlimit="10"/>
</g>
<path d="M515.9 202.1H278.89C276.256 202.1 274.12 204.236 274.12 206.87V260.37C274.12 263.004 276.256 265.14 278.89 265.14H515.9C518.534 265.14 520.67 263.004 520.67 260.37V206.87C520.67 204.236 518.534 202.1 515.9 202.1Z" fill="#D8D8D6"/>
<path d="M403.74 196.68H344.21C343.039 196.68 342.09 197.629 342.09 198.8V202.01C342.09 203.181 343.039 204.13 344.21 204.13H403.74C404.911 204.13 405.86 203.181 405.86 202.01V198.8C405.86 197.629 404.911 196.68 403.74 196.68Z" fill="#D8D8D6"/>
<path d="M272.99 206.29H269.98C268.754 206.29 267.76 207.284 267.76 208.51V260.59C267.76 261.816 268.754 262.81 269.98 262.81H272.99C274.216 262.81 275.21 261.816 275.21 260.59V208.51C275.21 207.284 274.216 206.29 272.99 206.29Z" fill="#D8D8D6"/>
<path d="M265.77 206.29H262.76C261.534 206.29 260.54 207.284 260.54 208.51V260.59C260.54 261.816 261.534 262.81 262.76 262.81H265.77C266.996 262.81 267.99 261.816 267.99 260.59V208.51C267.99 207.284 266.996 206.29 265.77 206.29Z" fill="#D8D8D6"/>
<g opacity="0.1">
<path d="M349.51 212.49H327.98C325.87 212.49 324.16 214.2 324.16 216.31V261.31C324.16 263.42 325.87 265.13 327.98 265.13H349.51C351.62 265.13 353.33 263.42 353.33 261.31V216.31C353.33 214.2 351.62 212.49 349.51 212.49Z" fill="#191919" stroke="black" stroke-width="1.02" stroke-miterlimit="10"/>
<path d="M338.76 212.49V265.14" stroke="black" stroke-width="1.02" stroke-miterlimit="10"/>
<path d="M332.58 217.69H330.11C328.928 217.69 327.97 218.648 327.97 219.83V236.67C327.97 237.852 328.928 238.81 330.11 238.81H332.58C333.762 238.81 334.72 237.852 334.72 236.67V219.83C334.72 218.648 333.762 217.69 332.58 217.69Z" stroke="black" stroke-width="1.02" stroke-miterlimit="10"/>
<path d="M347.01 217.69H344.54C343.358 217.69 342.4 218.648 342.4 219.83V236.67C342.4 237.852 343.358 238.81 344.54 238.81H347.01C348.192 238.81 349.15 237.852 349.15 236.67V219.83C349.15 218.648 348.192 217.69 347.01 217.69Z" stroke="black" stroke-width="1.02" stroke-miterlimit="10"/>
</g>
<g opacity="0.1">
<path d="M470.52 212.49H448.99C446.88 212.49 445.17 214.2 445.17 216.31V261.31C445.17 263.42 446.88 265.13 448.99 265.13H470.52C472.63 265.13 474.34 263.42 474.34 261.31V216.31C474.34 214.2 472.63 212.49 470.52 212.49Z" fill="#191919" stroke="black" stroke-width="1.02" stroke-miterlimit="10"/>
<path d="M459.76 212.49V265.14" stroke="black" stroke-width="1.02" stroke-miterlimit="10"/>
<path d="M453.58 217.69H451.11C449.928 217.69 448.97 218.648 448.97 219.83V236.67C448.97 237.852 449.928 238.81 451.11 238.81H453.58C454.762 238.81 455.72 237.852 455.72 236.67V219.83C455.72 218.648 454.762 217.69 453.58 217.69Z" stroke="black" stroke-width="1.02" stroke-miterlimit="10"/>
<path d="M468.01 217.69H465.54C464.358 217.69 463.4 218.648 463.4 219.83V236.67C463.4 237.852 464.358 238.81 465.54 238.81H468.01C469.192 238.81 470.15 237.852 470.15 236.67V219.83C470.15 218.648 469.192 217.69 468.01 217.69Z" stroke="black" stroke-width="1.02" stroke-miterlimit="10"/>
</g>
<g opacity="0.1">
<path d="M417.33 212.49H377.28C374.242 212.49 371.78 214.952 371.78 217.99V235.7C371.78 238.738 374.242 241.2 377.28 241.2H417.33C420.368 241.2 422.83 238.738 422.83 235.7V217.99C422.83 214.952 420.368 212.49 417.33 212.49Z" fill="#282828" stroke="black" stroke-width="1.02" stroke-miterlimit="10"/>
<path d="M371.78 220.25H422.83" stroke="black" stroke-width="1.02" stroke-miterlimit="10"/>
</g>
<g opacity="0.1">
<path d="M300.34 212.49H292.68C289.642 212.49 287.18 214.952 287.18 217.99V235.7C287.18 238.738 289.642 241.2 292.68 241.2H300.34C303.378 241.2 305.84 238.738 305.84 235.7V217.99C305.84 214.952 303.378 212.49 300.34 212.49Z" fill="#282828" stroke="black" stroke-width="0.61" stroke-miterlimit="10"/>
<path d="M287.18 220.25H305.84" stroke="black" stroke-width="0.61" stroke-miterlimit="10"/>
</g>
<g opacity="0.1">
<path d="M505.63 212.49H497.97C494.932 212.49 492.47 214.952 492.47 217.99V235.7C492.47 238.738 494.932 241.2 497.97 241.2H505.63C508.668 241.2 511.13 238.738 511.13 235.7V217.99C511.13 214.952 508.668 212.49 505.63 212.49Z" fill="#282828" stroke="black" stroke-width="0.61" stroke-miterlimit="10"/>
<path d="M492.47 220.25H511.13" stroke="black" stroke-width="0.61" stroke-miterlimit="10"/>
</g>
<path d="M255.77 202.1H18.76C16.1256 202.1 13.99 204.236 13.99 206.87V260.37C13.99 263.004 16.1256 265.14 18.76 265.14H255.77C258.404 265.14 260.54 263.004 260.54 260.37V206.87C260.54 204.236 258.404 202.1 255.77 202.1Z" fill="#D8D8D6"/>
<path d="M143.6 196.68H84.07C82.8992 196.68 81.95 197.629 81.95 198.8V202.01C81.95 203.181 82.8992 204.13 84.07 204.13H143.6C144.771 204.13 145.72 203.181 145.72 202.01V198.8C145.72 197.629 144.771 196.68 143.6 196.68Z" fill="#D8D8D6"/>
<path d="M12.86 206.29H9.85001C8.62393 206.29 7.63 207.284 7.63 208.51V260.59C7.63 261.816 8.62393 262.81 9.85001 262.81H12.86C14.0861 262.81 15.08 261.816 15.08 260.59V208.51C15.08 207.284 14.0861 206.29 12.86 206.29Z" fill="#D8D8D6"/>
<path d="M5.64 206.29H2.63C1.40393 206.29 0.410004 207.284 0.410004 208.51V260.59C0.410004 261.816 1.40393 262.81 2.63 262.81H5.64C6.86608 262.81 7.86 261.816 7.86 260.59V208.51C7.86 207.284 6.86608 206.29 5.64 206.29Z" fill="#D8D8D6"/>
<g opacity="0.1">
<path d="M89.38 212.49H67.85C65.7403 212.49 64.03 214.2 64.03 216.31V261.31C64.03 263.42 65.7403 265.13 67.85 265.13H89.38C91.4897 265.13 93.2 263.42 93.2 261.31V216.31C93.2 214.2 91.4897 212.49 89.38 212.49Z" fill="#191919" stroke="black" stroke-width="1.02" stroke-miterlimit="10"/>
<path d="M78.62 212.49V265.14" stroke="black" stroke-width="1.02" stroke-miterlimit="10"/>
<path d="M72.44 217.69H69.97C68.7881 217.69 67.83 218.648 67.83 219.83V236.67C67.83 237.852 68.7881 238.81 69.97 238.81H72.44C73.6219 238.81 74.58 237.852 74.58 236.67V219.83C74.58 218.648 73.6219 217.69 72.44 217.69Z" stroke="black" stroke-width="1.02" stroke-miterlimit="10"/>
<path d="M86.87 217.69H84.4C83.2181 217.69 82.26 218.648 82.26 219.83V236.67C82.26 237.852 83.2181 238.81 84.4 238.81H86.87C88.0519 238.81 89.01 237.852 89.01 236.67V219.83C89.01 218.648 88.0519 217.69 86.87 217.69Z" stroke="black" stroke-width="1.02" stroke-miterlimit="10"/>
</g>
<g opacity="0.1">
<path d="M210.39 212.49H188.86C186.75 212.49 185.04 214.2 185.04 216.31V261.31C185.04 263.42 186.75 265.13 188.86 265.13H210.39C212.5 265.13 214.21 263.42 214.21 261.31V216.31C214.21 214.2 212.5 212.49 210.39 212.49Z" fill="#191919" stroke="black" stroke-width="1.02" stroke-miterlimit="10"/>
<path d="M199.63 212.49V265.14" stroke="black" stroke-width="1.02" stroke-miterlimit="10"/>
<path d="M193.45 217.69H190.98C189.798 217.69 188.84 218.648 188.84 219.83V236.67C188.84 237.852 189.798 238.81 190.98 238.81H193.45C194.632 238.81 195.59 237.852 195.59 236.67V219.83C195.59 218.648 194.632 217.69 193.45 217.69Z" stroke="black" stroke-width="1.02" stroke-miterlimit="10"/>
<path d="M207.88 217.69H205.41C204.228 217.69 203.27 218.648 203.27 219.83V236.67C203.27 237.852 204.228 238.81 205.41 238.81H207.88C209.062 238.81 210.02 237.852 210.02 236.67V219.83C210.02 218.648 209.062 217.69 207.88 217.69Z" stroke="black" stroke-width="1.02" stroke-miterlimit="10"/>
</g>
<g opacity="0.1">
<path d="M157.19 212.49H117.14C114.102 212.49 111.64 214.952 111.64 217.99V235.7C111.64 238.738 114.102 241.2 117.14 241.2H157.19C160.228 241.2 162.69 238.738 162.69 235.7V217.99C162.69 214.952 160.228 212.49 157.19 212.49Z" fill="#282828" stroke="black" stroke-width="1.02" stroke-miterlimit="10"/>
<path d="M111.64 220.25H162.69" stroke="black" stroke-width="1.02" stroke-miterlimit="10"/>
</g>
<g opacity="0.1">
<path d="M40.21 212.49H32.55C29.5124 212.49 27.05 214.952 27.05 217.99V235.7C27.05 238.738 29.5124 241.2 32.55 241.2H40.21C43.2476 241.2 45.71 238.738 45.71 235.7V217.99C45.71 214.952 43.2476 212.49 40.21 212.49Z" fill="#282828" stroke="black" stroke-width="0.61" stroke-miterlimit="10"/>
<path d="M27.05 220.25H45.71" stroke="black" stroke-width="0.61" stroke-miterlimit="10"/>
</g>
<g opacity="0.1">
<path d="M245.5 212.49H237.84C234.802 212.49 232.34 214.952 232.34 217.99V235.7C232.34 238.738 234.802 241.2 237.84 241.2H245.5C248.538 241.2 251 238.738 251 235.7V217.99C251 214.952 248.538 212.49 245.5 212.49Z" fill="#282828" stroke="black" stroke-width="0.61" stroke-miterlimit="10"/>
<path d="M232.34 220.25H251" stroke="black" stroke-width="0.61" stroke-miterlimit="10"/>
</g>
<path opacity="0.1" d="M1008.53 202.1V234.21C1008.53 238.07 1010.55 241.2 1013.04 241.2H1041.01V208.1C1041.01 208.1 1040.63 202.09 1037.14 202.09H1008.53V202.1Z" fill="#191919" stroke="black" stroke-width="1.01" stroke-miterlimit="10"/>
<path d="M167.84 265.9H152.13V415.29H167.84V265.9Z" fill="#406302"/>
<path d="M395.78 265.9H380.07V415.29H395.78V265.9Z" fill="#406302"/>
<path d="M687.81 265.9H672.1V415.29H687.81V265.9Z" fill="#406302"/>
<path d="M947.33 265.9H931.62V415.29H947.33V265.9Z" fill="#406302"/>
<path d="M1278.05 265.9H1262.34V415.29H1278.05V265.9Z" fill="#406302"/>
<path d="M1441.17 242.35V238.2H0V242.35H8.15V254.68H0V265.65H1441.17V254.68H1428.66V242.35H1441.17ZM1139.23 242.35H1150.52V254.68H1139.23V242.35ZM1134.44 254.68H1123.15V242.35H1134.44V254.68ZM1155.31 242.35H1166.6V254.68H1155.31V242.35ZM1171.39 242.35H1182.68V254.68H1171.39V242.35ZM1187.47 242.35H1198.76V254.68H1187.47V242.35ZM1203.55 242.35H1214.84V254.68H1203.55V242.35ZM1219.63 242.35H1230.92V254.68H1219.63V242.35ZM1235.71 242.35H1247V254.68H1235.71V242.35ZM1251.79 242.35H1263.08V254.68H1251.79V242.35ZM1267.87 242.35H1279.16V254.68H1267.87V242.35ZM1283.95 242.35H1295.24V254.68H1283.95V242.35ZM1300.03 242.35H1311.32V254.68H1300.03V242.35ZM1316.11 242.35H1327.4V254.68H1316.11V242.35ZM1332.19 242.35H1343.48V254.68H1332.19V242.35ZM1348.27 242.35H1359.56V254.68H1348.27V242.35ZM1364.35 242.35H1375.64V254.68H1364.35V242.35ZM1380.43 242.35H1391.72V254.68H1380.43V242.35ZM1396.51 242.35H1407.8V254.68H1396.51V242.35ZM45.11 242.35H56.4V254.68H45.11V242.35ZM40.32 254.68H29.03V242.35H40.32V254.68ZM61.19 242.35H72.48V254.68H61.19V242.35ZM77.27 242.35H88.56V254.68H77.27V242.35ZM93.35 242.35H104.64V254.68H93.35V242.35ZM109.43 242.35H120.72V254.68H109.43V242.35ZM125.51 242.35H136.8V254.68H125.51V242.35ZM141.59 242.35H152.88V254.68H141.59V242.35ZM157.67 242.35H168.96V254.68H157.67V242.35ZM173.75 242.35H185.04V254.68H173.75V242.35ZM189.83 242.35H201.12V254.68H189.83V242.35ZM205.91 242.35H217.2V254.68H205.91V242.35ZM221.99 242.35H233.28V254.68H221.99V242.35ZM238.07 242.35H249.36V254.68H238.07V242.35ZM254.15 242.35H265.44V254.68H254.15V242.35ZM270.23 242.35H281.52V254.68H270.23V242.35ZM286.31 242.35H297.6V254.68H286.31V242.35ZM302.39 242.35H313.68V254.68H302.39V242.35ZM318.47 242.35H329.76V254.68H318.47V242.35ZM334.55 242.35H345.84V254.68H334.55V242.35ZM350.63 242.35H361.92V254.68H350.63V242.35ZM366.71 242.35H378V254.68H366.71V242.35ZM382.79 242.35H394.08V254.68H382.79V242.35ZM398.87 242.35H410.16V254.68H398.87V242.35ZM414.95 242.35H426.24V254.68H414.95V242.35ZM431.03 242.35H442.32V254.68H431.03V242.35ZM447.11 242.35H458.4V254.68H447.11V242.35ZM463.19 242.35H474.48V254.68H463.19V242.35ZM479.27 242.35H490.56V254.68H479.27V242.35ZM495.35 242.35H506.64V254.68H495.35V242.35ZM511.43 242.35H522.72V254.68H511.43V242.35ZM527.51 242.35H538.8V254.68H527.51V242.35ZM543.59 242.35H554.88V254.68H543.59V242.35ZM559.67 242.35H570.96V254.68H559.67V242.35ZM575.75 242.35H587.04V254.68H575.75V242.35ZM591.83 242.35H603.12V254.68H591.83V242.35ZM607.91 242.35H619.2V254.68H607.91V242.35ZM623.99 242.35H635.28V254.68H623.99V242.35ZM640.07 242.35H651.36V254.68H640.07V242.35ZM656.15 242.35H667.44V254.68H656.15V242.35ZM672.23 242.35H683.52V254.68H672.23V242.35ZM688.31 242.35H699.6V254.68H688.31V242.35ZM704.39 242.35H715.68V254.68H704.39V242.35ZM720.47 242.35H731.76V254.68H720.47V242.35ZM736.55 242.35H747.84V254.68H736.55V242.35ZM752.63 242.35H763.92V254.68H752.63V242.35ZM768.71 242.35H780V254.68H768.71V242.35ZM784.79 242.35H796.08V254.68H784.79V242.35ZM800.87 242.35H812.16V254.68H800.87V242.35ZM816.95 242.35H828.24V254.68H816.95V242.35ZM833.03 242.35H844.32V254.68H833.03V242.35ZM849.11 242.35H860.4V254.68H849.11V242.35ZM865.19 242.35H876.48V254.68H865.19V242.35ZM881.27 242.35H892.56V254.68H881.27V242.35ZM897.35 242.35H908.64V254.68H897.35V242.35ZM913.43 242.35H924.72V254.68H913.43V242.35ZM929.51 242.35H940.8V254.68H929.51V242.35ZM945.59 242.35H956.88V254.68H945.59V242.35ZM961.67 242.35H972.96V254.68H961.67V242.35ZM977.75 242.35H989.04V254.68H977.75V242.35ZM993.83 242.35H1005.12V254.68H993.83V242.35ZM1009.91 242.35H1021.2V254.68H1009.91V242.35ZM1025.99 242.35H1037.28V254.68H1025.99V242.35ZM1042.07 242.35H1053.36V254.68H1042.07V242.35ZM1058.15 242.35H1069.44V254.68H1058.15V242.35ZM1074.23 242.35H1085.52V254.68H1074.23V242.35ZM1090.31 242.35H1101.6V254.68H1090.31V242.35ZM13.01 242.35H24.3V254.68H13.01V242.35ZM1110.27 254.68H1106.38V242.35H1118.42V254.68H1110.27ZM1423.93 254.68H1412.64V242.35H1423.93V254.68Z" fill="#406302"/>
</g>
<defs>
<clipPath id="clip0_327_944">
<rect width="1442.55" height="415.29" fill="white"/>
</clipPath>
</defs>
</svg>
